<svg width="231" height="231" viewBox="0 0 231 231" fill="none" xmlns="http://www.w3.org/2000/svg">
<g clip-path="url(#clip0)">
<path d="M227.842 199.734L182.86 154.752C180.83 152.722 178.078 151.594 175.19 151.594H167.836C180.288 135.667 187.688 115.635 187.688 93.8438C187.688 42.0041 145.683 0 93.8438 0C42.0041 0 0 42.0041 0 93.8438C0 145.683 42.0041 187.688 93.8438 187.688C115.635 187.688 135.667 180.288 151.594 167.836V175.19C151.594 178.078 152.722 180.83 154.752 182.86L199.734 227.842C203.975 232.083 210.833 232.083 215.029 227.842L227.797 215.074C232.038 210.833 232.038 203.975 227.842 199.734ZM93.8438 151.594C61.9459 151.594 36.0938 125.787 36.0938 93.8438C36.0938 61.9459 61.9008 36.0938 93.8438 36.0938C125.742 36.0938 151.594 61.9008 151.594 93.8438C151.594 125.742 125.787 151.594 93.8438 151.594Z" fill="#B8B8B8"/>
</g>
<defs>
<clipPath id="clip0">
<rect width="231" height="231" fill="white"/>
</clipPath>
</defs>
</svg>
