<?xml version="1.0" encoding="UTF-8" standalone="no"?>
<!DOCTYPE svg PUBLIC "-//W3C//DTD SVG 1.1//EN" "http://www.w3.org/Graphics/SVG/1.1/DTD/svg11.dtd">
<svg width="100%" height="100%" viewBox="0 0 231 231" version="1.1" xmlns="http://www.w3.org/2000/svg" xmlns:xlink="http://www.w3.org/1999/xlink" xml:space="preserve" xmlns:serif="http://www.serif.com/" style="fill-rule:evenodd;clip-rule:evenodd;stroke-linejoin:round;stroke-miterlimit:2;">
    <path d="M227.842,199.734L182.86,154.752C180.83,152.722 178.078,151.594 175.19,151.594L167.836,151.594C180.288,135.667 187.688,115.635 187.688,93.844C187.688,42.004 145.683,0 93.844,0C42.004,0 0,42.004 0,93.844C0,145.683 42.004,187.688 93.844,187.688C115.635,187.688 135.667,180.288 151.594,167.836L151.594,175.19C151.594,178.078 152.722,180.83 154.752,182.86L199.734,227.842C203.975,232.083 210.833,232.083 215.029,227.842L227.797,215.074C232.038,210.833 232.038,203.975 227.842,199.734ZM93.844,151.594C61.946,151.594 36.094,125.787 36.094,93.844C36.094,61.946 61.901,36.094 93.844,36.094C125.742,36.094 151.594,61.901 151.594,93.844C151.594,125.742 125.787,151.594 93.844,151.594Z" style="fill-rule:nonzero;"/>
</svg>
